<svg xmlns="http://www.w3.org/2000/svg" width="159" height="45" viewBox="0 0 159 45" fill="none"><path fill-rule="evenodd" clip-rule="evenodd" d="M159 40.4892C159 42.9813 156.953 45 154.421 45H4.58459C2.05405 45 0 42.9813 0 40.4892V4.51672C0 2.02575 2.05405 0 4.58459 0H154.42C156.953 0 158.999 2.02575 158.999 4.51672L159 40.4892Z" fill="black"></path><path fill-rule="evenodd" clip-rule="evenodd" d="M34.9165 22.2527C34.8819 18.4568 38.068 16.6101 38.2137 16.5241C36.4093 13.9295 33.6124 13.575 32.6296 13.5467C30.2806 13.3029 28.002 14.9329 26.8054 14.9329C25.5849 14.9329 23.7422 13.5703 21.7563 13.6103C19.2007 13.6492 16.8098 15.1084 15.4986 17.3744C12.7925 21.9948 14.8107 28.7846 17.4034 32.5193C18.7003 34.3484 20.2157 36.3906 22.1993 36.3188C24.1399 36.2399 24.8648 35.0986 27.2067 35.0986C29.527 35.0986 30.2077 36.3188 32.2307 36.2728C34.3134 36.2399 35.6247 34.4355 36.8762 32.59C38.3749 30.4936 38.9768 28.4289 39.0007 28.3229C38.9518 28.3064 34.9559 26.8024 34.9165 22.2527Z" fill="white"></path><path fill-rule="evenodd" clip-rule="evenodd" d="M31.0949 11.0899C32.1387 9.80263 32.8528 8.05129 32.6546 6.27405C31.1439 6.34 29.2547 7.30459 28.1667 8.56362C27.2042 9.67307 26.3444 11.4915 26.5665 13.2017C28.2635 13.3265 30.0058 12.3572 31.0949 11.0899Z" fill="white"></path><path fill-rule="evenodd" clip-rule="evenodd" d="M63.0007 36.0561H60.2887L58.8031 31.4522H53.6393L52.2241 36.0561H49.5837L54.6998 20.3824H57.8596L63.0007 36.0561ZM58.3552 29.5208L57.0117 25.4281C56.8696 25.01 56.6033 24.0253 56.2104 22.4754H56.1626C56.0062 23.142 55.7542 24.1266 55.4079 25.4281L54.0883 29.5208H58.3552Z" fill="white"></path><path fill-rule="evenodd" clip-rule="evenodd" d="M76.1573 30.2662C76.1573 32.1883 75.6307 33.7076 74.5774 34.8229C73.6339 35.8158 72.4624 36.3116 71.064 36.3116C69.5545 36.3116 68.4702 35.7769 67.8098 34.7075H67.762V40.6611H65.2159V28.4748C65.2159 27.2664 65.1837 26.0262 65.1216 24.7542H67.3607L67.5028 26.5456H67.5506C68.3997 25.1959 69.6883 24.5222 71.4175 24.5222C72.7693 24.5222 73.8979 25.0487 74.8007 26.1028C75.7059 27.1581 76.1573 28.5455 76.1573 30.2662ZM73.5636 30.358C73.5636 29.258 73.3128 28.3511 72.8089 27.6374C72.2583 26.893 71.5191 26.5209 70.5924 26.5209C69.9642 26.5209 69.3934 26.7281 68.8835 27.1368C68.3724 27.549 68.038 28.0873 67.8815 28.7539C67.8027 29.0648 67.7633 29.3192 67.7633 29.5194V31.4039C67.7633 32.2259 68.0189 32.9197 68.53 33.4862C69.0411 34.0527 69.7051 34.3353 70.5219 34.3353C71.4809 34.3353 72.2273 33.9702 72.7611 33.2424C73.2961 32.5133 73.5636 31.5523 73.5636 30.358Z" fill="white"></path><path fill-rule="evenodd" clip-rule="evenodd" d="M89.338 30.2662C89.338 32.1883 88.8114 33.7076 87.7569 34.8229C86.8146 35.8158 85.6431 36.3116 84.2447 36.3116C82.7352 36.3116 81.6508 35.7769 80.9916 34.7075H80.9439V40.6611H78.3978V28.4748C78.3978 27.2664 78.3656 26.0262 78.3035 24.7542H80.5426L80.6847 26.5456H80.7325C81.5804 25.1959 82.8689 24.5222 84.5994 24.5222C85.95 24.5222 87.0785 25.0487 87.9838 26.1028C88.8854 27.1581 89.338 28.5455 89.338 30.2662ZM86.7441 30.358C86.7441 29.258 86.4922 28.3511 85.9882 27.6374C85.4377 26.893 84.7008 26.5209 83.7729 26.5209C83.1436 26.5209 82.5739 26.7281 82.0628 27.1368C81.5517 27.549 81.2185 28.0873 81.0621 28.7539C80.9845 29.0648 80.9438 29.3192 80.9438 29.5194V31.4039C80.9438 32.2259 81.1994 32.9197 81.7081 33.4862C82.2193 34.0515 82.8832 34.3353 83.7025 34.3353C84.6614 34.3353 85.4078 33.9702 85.9416 33.2424C86.4766 32.5133 86.7441 31.5523 86.7441 30.358Z" fill="white"></path><path fill-rule="evenodd" clip-rule="evenodd" d="M104.075 31.6608C104.075 32.994 103.605 34.0787 102.663 34.9161C101.628 35.8312 100.186 36.2882 98.334 36.2882C96.6239 36.2882 95.2529 35.9631 94.2151 35.3118L94.8051 33.2189C95.9229 33.8856 97.1493 34.22 98.4857 34.22C99.4446 34.22 100.191 34.0057 100.727 33.5793C101.261 33.153 101.527 32.5806 101.527 31.8669C101.527 31.2309 101.308 30.695 100.867 30.2604C100.429 29.8258 99.6966 29.4218 98.6743 29.0485C95.8918 28.025 94.5018 26.5257 94.5018 24.5541C94.5018 23.2657 94.989 22.2092 95.9647 21.3871C96.9368 20.5639 98.2337 20.1528 99.8554 20.1528C101.302 20.1528 102.503 20.4013 103.462 20.8972L102.825 22.9441C101.93 22.4636 100.917 22.2233 99.7838 22.2233C98.8881 22.2233 98.1883 22.4412 97.6867 22.8746C97.2628 23.2621 97.0502 23.7344 97.0502 24.2938C97.0502 24.9134 97.2926 25.4257 97.7799 25.8285C98.2038 26.2006 98.9741 26.6034 100.092 27.038C101.459 27.581 102.464 28.2158 103.11 28.9437C103.753 29.6692 104.075 30.5772 104.075 31.6608Z" fill="white"></path><path fill-rule="evenodd" clip-rule="evenodd" d="M112.493 26.6388H109.686V32.126C109.686 33.5217 110.181 34.2189 111.172 34.2189C111.627 34.2189 112.004 34.18 112.303 34.1023L112.373 36.0091C111.872 36.194 111.211 36.287 110.393 36.287C109.388 36.287 108.602 35.9844 108.035 35.3802C107.47 34.7748 107.185 33.7596 107.185 32.3333V26.6365H105.514V24.752H107.185V22.6827L109.686 21.9384V24.752H112.493V26.6388Z" fill="white"></path><path fill-rule="evenodd" clip-rule="evenodd" d="M125.155 30.312C125.155 32.0492 124.651 33.4755 123.645 34.5908C122.591 35.7392 121.191 36.3116 119.446 36.3116C117.765 36.3116 116.426 35.7615 115.428 34.6615C114.429 33.5615 113.93 32.1729 113.93 30.4993C113.93 28.748 114.444 27.3134 115.474 26.1981C116.503 25.0816 117.89 24.5233 119.635 24.5233C121.317 24.5233 122.67 25.0733 123.691 26.1745C124.667 27.2428 125.155 28.6219 125.155 30.312ZM122.513 30.3934C122.513 29.3511 122.287 28.4572 121.83 27.7117C121.296 26.8095 120.533 26.3596 119.544 26.3596C118.521 26.3596 117.743 26.8107 117.21 27.7117C116.752 28.4584 116.526 29.3664 116.526 30.4405C116.526 31.4828 116.752 32.3768 117.21 33.1211C117.76 34.0233 118.529 34.4732 119.522 34.4732C120.494 34.4732 121.257 34.0139 121.807 33.0976C122.277 32.3379 122.513 31.4346 122.513 30.3934Z" fill="white"></path><path fill-rule="evenodd" clip-rule="evenodd" d="M133.431 26.9625C133.179 26.9166 132.91 26.8931 132.628 26.8931C131.732 26.8931 131.04 27.2264 130.553 27.8942C130.129 28.483 129.916 29.2274 129.916 30.126V36.0561H127.371L127.395 28.3134C127.395 27.0108 127.363 25.8248 127.3 24.7554H129.517L129.61 26.9178H129.681C129.95 26.1746 130.373 25.5763 130.954 25.1276C131.521 24.7236 132.134 24.5222 132.794 24.5222C133.029 24.5222 133.242 24.5387 133.431 24.5681V26.9625Z" fill="white"></path><path fill-rule="evenodd" clip-rule="evenodd" d="M144.818 29.8704C144.818 30.3203 144.788 30.6995 144.724 31.0093H137.086C137.116 32.1258 137.485 32.9797 138.194 33.5686C138.838 34.095 139.67 34.3589 140.693 34.3589C141.824 34.3589 142.855 34.181 143.783 33.8242L144.182 35.5672C143.098 36.0336 141.818 36.2657 140.34 36.2657C138.563 36.2657 137.169 35.7498 136.154 34.7193C135.141 33.6887 134.633 32.3048 134.633 30.5688C134.633 28.8646 135.105 27.4454 136.05 26.3136C137.038 25.1052 138.375 24.501 140.056 24.501C141.708 24.501 142.958 25.1052 143.807 26.3136C144.48 27.2734 144.818 28.4606 144.818 29.8704ZM142.39 29.2192C142.406 28.4748 142.24 27.8318 141.895 27.2888C141.455 26.5904 140.778 26.2418 139.866 26.2418C139.034 26.2418 138.357 26.5822 137.84 27.2653C137.416 27.8082 137.164 28.4595 137.086 29.218H142.39V29.2192Z" fill="white"></path><path fill-rule="evenodd" clip-rule="evenodd" d="M57.5134 10.74C57.5134 12.1263 57.0919 13.1698 56.2499 13.8705C55.4701 14.5171 54.3619 14.841 52.9264 14.841C52.2147 14.841 51.6056 14.8104 51.0957 14.7491V7.17495C51.7609 7.06895 52.4774 7.01477 53.2513 7.01477C54.6186 7.01477 55.6492 7.30803 56.3443 7.89456C57.1229 8.55764 57.5134 9.50574 57.5134 10.74ZM56.1937 10.7742C56.1937 9.87558 55.9525 9.18659 55.47 8.70606C54.9876 8.22671 54.283 7.98645 53.3551 7.98645C52.961 7.98645 52.6254 8.01236 52.3472 8.06654V13.8246C52.5012 13.8482 52.7831 13.8588 53.1927 13.8588C54.1504 13.8588 54.8896 13.5961 55.4103 13.0709C55.931 12.5456 56.1937 11.78 56.1937 10.7742Z" fill="white"></path><path fill-rule="evenodd" clip-rule="evenodd" d="M64.5103 11.9508C64.5103 12.8047 64.2631 13.5043 63.7687 14.0531C63.2504 14.6172 62.5637 14.8987 61.7063 14.8987C60.8799 14.8987 60.2218 14.629 59.731 14.0873C59.2414 13.5467 58.9966 12.8647 58.9966 12.0427C58.9966 11.1829 59.2486 10.4774 59.7549 9.92975C60.2613 9.38208 60.942 9.10767 61.7994 9.10767C62.6258 9.10767 63.2898 9.37737 63.7925 9.91797C64.2702 10.4433 64.5103 11.1216 64.5103 11.9508ZM63.2121 11.9908C63.2121 11.4785 63.0998 11.0392 62.8765 10.6729C62.6138 10.2301 62.24 10.0087 61.754 10.0087C61.2512 10.0087 60.8691 10.2301 60.6063 10.6729C60.3818 11.0392 60.2708 11.4856 60.2708 12.0132C60.2708 12.5255 60.383 12.9649 60.6063 13.3311C60.8774 13.774 61.2548 13.9954 61.742 13.9954C62.2197 13.9954 62.5947 13.7704 62.8646 13.3194C63.0963 12.946 63.2121 12.5032 63.2121 11.9908Z" fill="white"></path><path fill-rule="evenodd" clip-rule="evenodd" d="M73.892 9.2207L72.1305 14.7727H70.984L70.2544 12.3618C70.0693 11.76 69.9188 11.1617 69.8018 10.5681H69.7791C69.6704 11.1781 69.5199 11.7753 69.3265 12.3618L68.5514 14.7727H67.3918L65.7355 9.2207H67.0216L67.6582 11.8601C67.8122 12.4843 67.9388 13.0791 68.0403 13.642H68.063C68.1561 13.178 68.3102 12.5868 68.5275 11.8718L69.3265 9.22188H70.3463L71.1118 11.8153C71.2969 12.4478 71.4474 13.0567 71.5632 13.6432H71.5979C71.6827 13.072 71.8104 12.4631 71.98 11.8153L72.6631 9.22188H73.892V9.2207Z" fill="white"></path><path fill-rule="evenodd" clip-rule="evenodd" d="M80.3802 14.7726H79.1286V11.5926C79.1286 10.6127 78.7513 10.1228 77.9941 10.1228C77.6227 10.1228 77.323 10.257 77.0901 10.5267C76.8596 10.7965 76.7426 11.1144 76.7426 11.4784V14.7714H75.4911V10.8071C75.4911 10.3195 75.4755 9.79064 75.4457 9.21825H76.5456L76.6041 10.0863H76.6387C76.7844 9.81655 77.0017 9.59395 77.2872 9.41611C77.6263 9.20882 78.0061 9.104 78.4217 9.104C78.9471 9.104 79.3842 9.27125 79.7317 9.60691C80.164 10.0179 80.3802 10.6316 80.3802 11.4466V14.7726Z" fill="white"></path><path fill-rule="evenodd" clip-rule="evenodd" d="M83.8314 14.7726H82.5811V6.6731H83.8314V14.7726Z" fill="white"></path><path fill-rule="evenodd" clip-rule="evenodd" d="M91.1997 11.9508C91.1997 12.8047 90.9525 13.5043 90.4581 14.0531C89.9398 14.6172 89.252 14.8987 88.3957 14.8987C87.5681 14.8987 86.9101 14.629 86.4205 14.0873C85.9308 13.5467 85.686 12.8647 85.686 12.0427C85.686 11.1829 85.938 10.4774 86.4444 9.92975C86.9507 9.38208 87.6314 9.10767 88.4877 9.10767C89.3153 9.10767 89.978 9.37737 90.482 9.91797C90.9597 10.4433 91.1997 11.1216 91.1997 11.9508ZM89.9005 11.9908C89.9005 11.4785 89.7882 11.0392 89.5649 10.6729C89.3034 10.2301 88.9284 10.0087 88.4435 10.0087C87.9396 10.0087 87.5574 10.2301 87.2959 10.6729C87.0714 11.0392 86.9603 11.4856 86.9603 12.0132C86.9603 12.5255 87.0726 12.9649 87.2959 13.3311C87.567 13.774 87.9444 13.9954 88.4316 13.9954C88.9093 13.9954 89.2831 13.7704 89.553 13.3194C89.7858 12.946 89.9005 12.5032 89.9005 11.9908Z" fill="white"></path><path fill-rule="evenodd" clip-rule="evenodd" d="M97.2569 14.7727H96.1331L96.04 14.1332H96.0053C95.6208 14.6432 95.0726 14.8987 94.3609 14.8987C93.8295 14.8987 93.3996 14.7303 93.0759 14.3958C92.7821 14.092 92.6353 13.7139 92.6353 13.2652C92.6353 12.5868 92.9219 12.0697 93.4987 11.7117C94.0743 11.3537 94.884 11.1782 95.9265 11.1864V11.0828C95.9265 10.3514 95.5372 9.98628 94.7574 9.98628C94.2021 9.98628 93.7124 10.1241 93.2897 10.3973L93.0353 9.58702C93.5584 9.26784 94.2045 9.10767 94.9664 9.10767C96.4376 9.10767 97.1757 9.87321 97.1757 11.4043V13.4489C97.1757 14.0036 97.2031 14.4453 97.2569 14.7727ZM95.9575 12.8646V12.0084C94.577 11.9848 93.8867 12.3582 93.8867 13.1272C93.8867 13.417 93.9655 13.6337 94.1268 13.7786C94.288 13.9234 94.4934 13.9953 94.7382 13.9953C95.0129 13.9953 95.2696 13.9093 95.5037 13.7385C95.7389 13.5666 95.8834 13.3487 95.9372 13.0813C95.9503 13.0212 95.9575 12.9482 95.9575 12.8646Z" fill="white"></path><path fill-rule="evenodd" clip-rule="evenodd" d="M104.368 14.7726H103.258L103.199 13.881H103.165C102.81 14.5594 102.206 14.8986 101.357 14.8986C100.678 14.8986 100.113 14.636 99.6656 14.1107C99.2177 13.5854 98.9944 12.9035 98.9944 12.0661C98.9944 11.1674 99.2368 10.4396 99.7241 9.88368C100.196 9.36546 100.774 9.10636 101.462 9.10636C102.218 9.10636 102.747 9.35722 103.048 9.86012H103.071V6.6731H104.324V13.2768C104.324 13.8174 104.339 14.3156 104.368 14.7726ZM103.071 12.4313V11.5055C103.071 11.3454 103.06 11.2158 103.037 11.1169C102.966 10.8201 102.815 10.5704 102.584 10.369C102.351 10.1676 102.071 10.0663 101.747 10.0663C101.28 10.0663 100.915 10.2489 100.646 10.6151C100.38 10.9814 100.245 11.449 100.245 12.0202C100.245 12.5691 100.373 13.0143 100.629 13.357C100.9 13.7221 101.266 13.9046 101.723 13.9046C102.134 13.9046 102.462 13.7527 102.712 13.4477C102.953 13.1662 103.071 12.827 103.071 12.4313Z" fill="white"></path><path fill-rule="evenodd" clip-rule="evenodd" d="M115.072 11.9508C115.072 12.8047 114.825 13.5043 114.33 14.0531C113.812 14.6172 113.127 14.8987 112.268 14.8987C111.443 14.8987 110.785 14.629 110.293 14.0873C109.803 13.5467 109.558 12.8647 109.558 12.0427C109.558 11.1829 109.81 10.4774 110.317 9.92975C110.823 9.38208 111.504 9.10767 112.362 9.10767C113.188 9.10767 113.853 9.37737 114.354 9.91797C114.832 10.4433 115.072 11.1216 115.072 11.9508ZM113.775 11.9908C113.775 11.4785 113.663 11.0392 113.439 10.6729C113.176 10.2301 112.803 10.0087 112.316 10.0087C111.814 10.0087 111.432 10.2301 111.168 10.6729C110.944 11.0392 110.833 11.4856 110.833 12.0132C110.833 12.5255 110.945 12.9649 111.168 13.3311C111.439 13.774 111.817 13.9954 112.304 13.9954C112.781 13.9954 113.158 13.7704 113.428 13.3194C113.658 12.946 113.775 12.5032 113.775 11.9908Z" fill="white"></path><path fill-rule="evenodd" clip-rule="evenodd" d="M121.801 14.7726H120.551V11.5926C120.551 10.6127 120.174 10.1228 119.415 10.1228C119.044 10.1228 118.744 10.257 118.513 10.5267C118.281 10.7965 118.165 11.1144 118.165 11.4784V14.7714H116.912V10.8071C116.912 10.3195 116.898 9.79064 116.868 9.21825H117.967L118.025 10.0863H118.06C118.207 9.81655 118.424 9.59395 118.708 9.41611C119.049 9.20882 119.427 9.104 119.844 9.104C120.368 9.104 120.805 9.27125 121.153 9.60691C121.587 10.0179 121.801 10.6316 121.801 11.4466V14.7726Z" fill="white"></path><path fill-rule="evenodd" clip-rule="evenodd" d="M130.224 10.1453H128.846V12.8423C128.846 13.5278 129.091 13.8705 129.576 13.8705C129.8 13.8705 129.987 13.8517 130.133 13.8128L130.166 14.7491C129.919 14.841 129.594 14.8869 129.194 14.8869C128.699 14.8869 128.315 14.7385 128.036 14.4417C127.757 14.1449 127.618 13.6456 127.618 12.9448V10.1453H126.796V9.22071H127.618V8.20312L128.845 7.83801V9.21953H130.223V10.1453H130.224Z" fill="white"></path><path fill-rule="evenodd" clip-rule="evenodd" d="M136.85 14.7726H135.597V11.6162C135.597 10.621 135.22 10.1228 134.464 10.1228C133.883 10.1228 133.487 10.4113 133.269 10.9884C133.232 11.1097 133.211 11.2581 133.211 11.4324V14.7714H131.961V6.6731H133.211V10.0191H133.235C133.629 9.41022 134.194 9.10636 134.926 9.10636C135.444 9.10636 135.873 9.2736 136.213 9.60926C136.637 10.0274 136.85 10.6492 136.85 11.4713V14.7726Z" fill="white"></path><path fill-rule="evenodd" clip-rule="evenodd" d="M143.684 11.7341C143.684 11.9555 143.668 12.1416 143.638 12.2935H139.884C139.901 12.8423 140.08 13.2604 140.428 13.5502C140.745 13.8093 141.155 13.9388 141.656 13.9388C142.212 13.9388 142.718 13.8517 143.174 13.6762L143.37 14.5336C142.836 14.7621 142.208 14.8763 141.481 14.8763C140.609 14.8763 139.922 14.6231 139.426 14.1167C138.927 13.6102 138.679 12.9307 138.679 12.078C138.679 11.2406 138.91 10.5433 139.374 9.98744C139.859 9.39384 140.515 9.09705 141.342 9.09705C142.152 9.09705 142.767 9.39384 143.183 9.98744C143.518 10.4585 143.684 11.0415 143.684 11.7341ZM142.49 11.4149C142.5 11.0486 142.417 10.733 142.248 10.4668C142.03 10.1241 141.699 9.95214 141.252 9.95214C140.843 9.95214 140.51 10.1194 140.256 10.455C140.048 10.7224 139.925 11.0416 139.884 11.4149H142.49Z" fill="white"></path></svg>