<svg xmlns="http://www.w3.org/2000/svg" width="152" height="45" viewBox="0 0 152 45" fill="none"><path fill-rule="evenodd" clip-rule="evenodd" d="M146.37 45H5.62963C2.47704 45 0 42.525 0 39.375V5.625C0 2.475 2.47704 0 5.62963 0H146.37C149.523 0 152 2.475 152 5.625V39.375C152 42.4125 149.523 45 146.37 45Z" fill="black"></path><path fill-rule="evenodd" clip-rule="evenodd" d="M53.3689 11.475C53.3689 12.375 53.1437 13.1625 52.5807 13.725C51.9052 14.4 51.117 14.7375 50.1037 14.7375C49.0904 14.7375 48.3022 14.4 47.6267 13.725C46.9511 13.05 46.6133 12.2625 46.6133 11.25C46.6133 10.2375 46.9511 9.44995 47.6267 8.77495C48.3022 8.09995 49.0904 7.76245 50.1037 7.76245C50.5541 7.76245 51.0044 7.87495 51.4548 8.09995C51.9052 8.32495 52.243 8.54995 52.4681 8.88745L51.9052 9.44995C51.4548 8.88745 50.8919 8.66245 50.1037 8.66245C49.4281 8.66245 48.7526 8.88745 48.3022 9.44995C47.7393 9.89995 47.5141 10.575 47.5141 11.3625C47.5141 12.15 47.7393 12.825 48.3022 13.275C48.8652 13.725 49.4281 14.0625 50.1037 14.0625C50.8919 14.0625 51.4548 13.8375 52.0178 13.275C52.3556 12.9375 52.5807 12.4875 52.5807 11.925H50.1037V11.1375H53.3689C53.3689 11.1375 53.3689 11.3625 53.3689 11.475Z" fill="white" stroke="white" stroke-width="0.2"></path><path fill-rule="evenodd" clip-rule="evenodd" d="M58.5482 8.6625H55.5082V10.8H58.323V11.5875H55.5082V13.725H58.5482V14.625H54.6074V7.875H58.5482V8.6625Z" fill="white" stroke="white" stroke-width="0.2"></path><path fill-rule="evenodd" clip-rule="evenodd" d="M62.2637 14.625H61.363V8.6625H59.4489V7.875H64.1778V8.6625H62.2637V14.625Z" fill="white" stroke="white" stroke-width="0.2"></path><path fill-rule="evenodd" clip-rule="evenodd" d="M67.443 14.625V7.875H68.3437V14.625H67.443Z" fill="white" stroke="white" stroke-width="0.2"></path><path fill-rule="evenodd" clip-rule="evenodd" d="M72.1718 14.625H71.2711V8.6625H69.357V7.875H73.9733V8.6625H72.0592V14.625H72.1718Z" fill="white" stroke="white" stroke-width="0.2"></path><path fill-rule="evenodd" clip-rule="evenodd" d="M82.8682 13.725C82.1926 14.4 81.4044 14.7375 80.3911 14.7375C79.3778 14.7375 78.5896 14.4 77.9141 13.725C77.2385 13.05 76.9007 12.2625 76.9007 11.25C76.9007 10.2375 77.2385 9.44995 77.9141 8.77495C78.5896 8.09995 79.3778 7.76245 80.3911 7.76245C81.4044 7.76245 82.1926 8.09995 82.8682 8.77495C83.5437 9.44995 83.8815 10.2375 83.8815 11.25C83.8815 12.2625 83.5437 13.05 82.8682 13.725ZM78.5896 13.1624C79.04 13.6124 79.7156 13.9499 80.3911 13.9499C81.0667 13.9499 81.7422 13.7249 82.1926 13.1624C82.643 12.7124 82.9807 12.0374 82.9807 11.2499C82.9807 10.4624 82.7556 9.78744 82.1926 9.33744C81.7422 8.88744 81.0667 8.54994 80.3911 8.54994C79.7156 8.54994 79.04 8.77494 78.5896 9.33744C78.1393 9.78744 77.8015 10.4624 77.8015 11.2499C77.8015 12.0374 78.0267 12.7124 78.5896 13.1624Z" fill="white"></path><path d="M78.5896 13.1624L78.6607 13.0913L78.6521 13.0843L78.5896 13.1624ZM82.1926 13.1624L82.1215 13.0913L82.1145 13.0999L82.1926 13.1624ZM82.1926 9.33744L82.1215 9.40862L82.1302 9.41556L82.1926 9.33744ZM78.5896 9.33744L78.6607 9.40862L78.6677 9.39995L78.5896 9.33744ZM82.7975 13.6542C82.1407 14.3104 81.378 14.6375 80.3911 14.6375V14.8375C81.4309 14.8375 82.2445 14.4895 82.9388 13.7957L82.7975 13.6542ZM80.3911 14.6375C79.4042 14.6375 78.6415 14.3104 77.9848 13.6542L77.8434 13.7957C78.5377 14.4895 79.3513 14.8375 80.3911 14.8375V14.6375ZM77.9848 13.6542C77.328 12.998 77.0007 12.236 77.0007 11.25H76.8007C76.8007 12.2889 77.149 13.1019 77.8434 13.7957L77.9848 13.6542ZM77.0007 11.25C77.0007 10.2639 77.328 9.50191 77.9848 8.84569L77.8434 8.70421C77.149 9.398 76.8007 10.211 76.8007 11.25H77.0007ZM77.9848 8.84569C78.6415 8.18947 79.4042 7.86245 80.3911 7.86245V7.66245C79.3513 7.66245 78.5377 8.01043 77.8434 8.70421L77.9848 8.84569ZM80.3911 7.86245C81.378 7.86245 82.1407 8.18947 82.7975 8.84569L82.9388 8.70421C82.2445 8.01043 81.4309 7.66245 80.3911 7.66245V7.86245ZM82.7975 8.84569C83.4542 9.50191 83.7815 10.2639 83.7815 11.25H83.9815C83.9815 10.211 83.6332 9.398 82.9388 8.70421L82.7975 8.84569ZM83.7815 11.25C83.7815 12.236 83.4542 12.998 82.7975 13.6542L82.9388 13.7957C83.6332 13.1019 83.9815 12.2889 83.9815 11.25H83.7815ZM78.5189 13.2332C78.9845 13.6983 79.6844 14.0499 80.3911 14.0499V13.8499C79.7467 13.8499 79.0955 13.5266 78.6603 13.0917L78.5189 13.2332ZM80.3911 14.0499C81.0876 14.0499 81.7961 13.8176 82.2707 13.2249L82.1145 13.0999C81.6883 13.6323 81.0457 13.8499 80.3911 13.8499V14.0499ZM82.2633 13.2332C82.7306 12.7663 83.0807 12.0665 83.0807 11.2499H82.8807C82.8807 12.0084 82.5553 12.6586 82.1219 13.0917L82.2633 13.2332ZM83.0807 11.2499C83.0807 10.444 82.8497 9.73469 82.255 9.25933L82.1302 9.41556C82.6614 9.8402 82.8807 10.4809 82.8807 11.2499H83.0807ZM82.2633 9.26671C81.7977 8.80156 81.0979 8.44994 80.3911 8.44994V8.64994C81.0355 8.64994 81.6867 8.97333 82.1219 9.40818L82.2633 9.26671ZM80.3911 8.44994C79.6946 8.44994 78.9861 8.68227 78.5116 9.27494L78.6677 9.39995C79.0939 8.86762 79.7365 8.64994 80.3911 8.64994V8.44994ZM78.5189 9.26671C78.0516 9.73364 77.7015 10.4334 77.7015 11.2499H77.9015C77.9015 10.4915 78.2269 9.84125 78.6603 9.40818L78.5189 9.26671ZM77.7015 11.2499C77.7015 12.0559 77.9325 12.7652 78.5272 13.2406L78.6521 13.0843C78.1208 12.6597 77.9015 12.019 77.9015 11.2499H77.7015Z" fill="white"></path><path fill-rule="evenodd" clip-rule="evenodd" d="M85.12 14.625V7.875H86.1333L89.3985 13.1625V11.8125V7.875H90.2993V14.625H89.3985L85.9081 9.1125V10.4625V14.625H85.12Z" fill="white" stroke="white" stroke-width="0.2"></path><path fill-rule="evenodd" clip-rule="evenodd" d="M76.6756 24.5251C73.9733 24.5251 71.8341 26.5501 71.8341 29.3626C71.8341 32.0626 73.9733 34.2001 76.6756 34.2001C79.3778 34.2001 81.517 32.1751 81.517 29.3626C81.517 26.4376 79.3778 24.5251 76.6756 24.5251ZM76.6755 32.1751C75.2118 32.1751 73.9733 30.9376 73.9733 29.2501C73.9733 27.5626 75.2118 26.3251 76.6755 26.3251C78.1392 26.3251 79.3778 27.4501 79.3778 29.2501C79.3778 30.9376 78.1392 32.1751 76.6755 32.1751ZM66.2045 24.5251C63.5022 24.5251 61.363 26.5501 61.363 29.3626C61.363 32.0626 63.5022 34.2001 66.2045 34.2001C68.9067 34.2001 71.0459 32.1751 71.0459 29.3626C71.0459 26.4376 68.9067 24.5251 66.2045 24.5251ZM66.2044 32.1751C64.7407 32.1751 63.5022 30.9376 63.5022 29.2501C63.5022 27.5626 64.7407 26.3251 66.2044 26.3251C67.6681 26.3251 68.9067 27.4501 68.9067 29.2501C68.9067 30.9376 67.6681 32.1751 66.2044 32.1751ZM53.7067 25.9875V28.0125H58.5482C58.4356 29.1375 57.9852 30.0375 57.4222 30.6C56.7467 31.275 55.6207 32.0625 53.7067 32.0625C50.6667 32.0625 48.4148 29.7 48.4148 26.6625C48.4148 23.625 50.7793 21.2625 53.7067 21.2625C55.283 21.2625 56.5215 21.9375 57.4222 22.725L58.8859 21.2625C57.6474 20.1375 56.0711 19.2375 53.8193 19.2375C49.7659 19.2375 46.2756 22.6125 46.2756 26.6625C46.2756 30.7125 49.7659 34.0875 53.8193 34.0875C56.0711 34.0875 57.6474 33.4125 58.9985 31.95C60.3496 30.6 60.8 28.6875 60.8 27.225C60.8 26.775 60.8 26.325 60.6874 25.9875H53.7067ZM104.824 27.5626C104.373 26.4376 103.247 24.5251 100.77 24.5251C98.2933 24.5251 96.2667 26.4376 96.2667 29.3626C96.2667 32.0626 98.2933 34.2001 100.996 34.2001C103.135 34.2001 104.486 32.8501 104.936 32.0626L103.36 30.9376C102.797 31.7251 102.121 32.2876 100.996 32.2876C99.8696 32.2876 99.1941 31.8376 98.6311 30.8251L105.049 28.1251L104.824 27.5626ZM98.2933 29.1376C98.2933 27.3376 99.757 26.3251 100.77 26.3251C101.559 26.3251 102.347 26.7751 102.572 27.3376L98.2933 29.1376ZM93.0015 33.7501H95.1407V19.6876H93.0015V33.7501ZM89.6237 25.5375C89.0607 24.975 88.16 24.4125 87.0341 24.4125C84.6696 24.4125 82.4178 26.55 82.4178 29.25C82.4178 31.95 84.557 33.975 87.0341 33.975C88.16 33.975 89.0607 33.4125 89.5111 32.85H89.6237V33.525C89.6237 35.325 88.6104 36.3375 87.0341 36.3375C85.7956 36.3375 84.8948 35.4375 84.6696 34.65L82.8682 35.4375C83.4311 36.675 84.7822 38.25 87.1467 38.25C89.6237 38.25 91.6504 36.7875 91.6504 33.3V24.75H89.6237V25.5375ZM87.1467 32.1751C85.683 32.1751 84.4445 30.9376 84.4445 29.2501C84.4445 27.5626 85.683 26.3251 87.1467 26.3251C88.6104 26.3251 89.7363 27.5626 89.7363 29.2501C89.7363 30.9376 88.6104 32.1751 87.1467 32.1751ZM114.619 19.6876H109.553V33.7501H111.692V28.4626H114.619C116.984 28.4626 119.236 26.7751 119.236 24.0751C119.236 21.3751 116.984 19.6876 114.619 19.6876ZM114.732 26.4375H111.692V21.6H114.732C116.308 21.6 117.209 22.95 117.209 23.9625C117.096 25.2 116.196 26.4375 114.732 26.4375ZM127.68 24.4125C126.104 24.4125 124.527 25.0875 123.964 26.55L125.879 27.3375C126.329 26.55 127.004 26.325 127.793 26.325C128.919 26.325 129.932 27 130.044 28.125V28.2375C129.707 28.0125 128.806 27.675 127.905 27.675C125.879 27.675 123.852 28.8 123.852 30.825C123.852 32.7375 125.541 33.975 127.342 33.975C128.806 33.975 129.481 33.3 130.044 32.625H130.157V33.75H132.184V28.35C131.959 25.875 130.044 24.4125 127.68 24.4125ZM127.455 32.175C126.779 32.175 125.766 31.8375 125.766 30.9375C125.766 29.8125 127.004 29.475 128.018 29.475C128.919 29.475 129.369 29.7 129.932 29.925C129.707 31.275 128.581 32.175 127.455 32.175ZM139.277 24.7501L136.913 30.8251H136.8L134.323 24.7501H132.071L135.787 33.3001L133.647 38.0251H135.787L141.529 24.7501H139.277ZM120.361 33.7501H122.501V19.6876H120.361V33.7501Z" fill="white"></path><path fill-rule="evenodd" clip-rule="evenodd" d="M11.7096 8.4375C11.3719 8.775 11.1467 9.3375 11.1467 10.0125V34.875C11.1467 35.55 11.3719 36.1125 11.7096 36.45L11.8222 36.5625L25.7837 22.6125V22.5V22.3875L11.7096 8.4375Z" fill="url(#paint0_linear)"></path><path fill-rule="evenodd" clip-rule="evenodd" d="M30.4 27.3375L25.7837 22.725V22.5V22.3875L30.4 17.775L30.5126 17.8875L36.0296 21.0375C37.6059 21.9375 37.6059 23.4 36.0296 24.3L30.4 27.3375Z" fill="url(#paint1_linear)"></path><path fill-rule="evenodd" clip-rule="evenodd" d="M30.5126 27.225L25.7837 22.5L11.7096 36.5625C12.2726 37.125 13.0607 37.125 14.0741 36.675L30.5126 27.225Z" fill="url(#paint2_linear)"></path><path fill-rule="evenodd" clip-rule="evenodd" d="M30.5126 17.7751L14.0741 8.43757C13.0607 7.87507 12.2726 7.98757 11.7096 8.55007L25.7837 22.5001L30.5126 17.7751Z" fill="url(#paint3_linear)"></path><path opacity="0.2" fill-rule="evenodd" clip-rule="evenodd" d="M30.4 27.1125L14.0741 36.3376C13.1733 36.9001 12.3852 36.7876 11.8222 36.3376L11.7096 36.4501L11.8222 36.5626C12.3852 37.0126 13.1733 37.1251 14.0741 36.5626L30.4 27.1125Z" fill="black"></path><path opacity="0.12" fill-rule="evenodd" clip-rule="evenodd" d="M11.7096 36.3376C11.3718 36.0001 11.2593 35.4376 11.2593 34.7626V34.8751C11.2593 35.5501 11.4844 36.1126 11.8222 36.4501V36.3376H11.7096Z" fill="black"></path><path opacity="0.12" fill-rule="evenodd" clip-rule="evenodd" d="M36.0296 23.9625L30.4 27.1125L30.5126 27.225L36.0296 24.075C36.8178 23.625 37.1555 23.0625 37.1555 22.5C37.1555 23.0625 36.7052 23.5125 36.0296 23.9625Z" fill="black"></path><path opacity="0.25" fill-rule="evenodd" clip-rule="evenodd" d="M14.0741 8.55005L36.0296 21.0375C36.7052 21.4875 37.1555 21.9375 37.1555 22.5C37.1555 21.9375 36.8178 21.375 36.0296 20.925L14.0741 8.43755C12.4978 7.53755 11.2593 8.32505 11.2593 10.125V10.2375C11.2593 8.43755 12.4978 7.65005 14.0741 8.55005Z" fill="white"></path><defs><linearGradient id="paint0_linear" x1="19.632" y1="-8.35562" x2="-2.7351" y2="-2.3026" gradientUnits="userSpaceOnUse"><stop stop-color="#00A0FF"></stop><stop offset="0.00657445" stop-color="#00A1FF"></stop><stop offset="0.2601" stop-color="#00BEFF"></stop><stop offset="0.5122" stop-color="#00D2FF"></stop><stop offset="0.7604" stop-color="#00DFFF"></stop><stop offset="1" stop-color="#00E3FF"></stop></linearGradient><linearGradient id="paint1_linear" x1="38.095" y1="11.1034" x2="10.8511" y2="11.1034" gradientUnits="userSpaceOnUse"><stop stop-color="#FFE000"></stop><stop offset="0.4087" stop-color="#FFBD00"></stop><stop offset="0.7754" stop-color="#FFA500"></stop><stop offset="1" stop-color="#FF9C00"></stop></linearGradient><linearGradient id="paint2_linear" x1="11.3524" y1="15.2033" x2="-6.60158" y2="45.3711" gradientUnits="userSpaceOnUse"><stop stop-color="#FF3A44"></stop><stop offset="1" stop-color="#C31162"></stop></linearGradient><linearGradient id="paint3_linear" x1="0.768674" y1="4.5896" x2="8.72262" y2="18.0793" gradientUnits="userSpaceOnUse"><stop stop-color="#32A071"></stop><stop offset="0.0685" stop-color="#2DA771"></stop><stop offset="0.4762" stop-color="#15CF74"></stop><stop offset="0.8009" stop-color="#06E775"></stop><stop offset="1" stop-color="#00F076"></stop></linearGradient></defs></svg>